STARTFONT 2.1
COMMENT Send bug reports to Markus Kuhn <http://www.cl.cam.ac.uk/~mgk25/>
FONT "-Misc-Fixed-Medium-R-SemiCondensed--12-110-75-75-C-60-ISO10646-1"
SIZE 12 75 75
FONTBOUNDINGBOX 6 11 0 -2
STARTPROPERTIES 25
FONT_ASCENT 10
FONT_DESCENT 2
PIXEL_SIZE 12
X_HEIGHT 5
CAP_HEIGHT 7
RESOLUTION_X 75
RESOLUTION_Y 75
POINT_SIZE 120
COPYRIGHT "Public domain terminal emulator font.  Share and enjoy."
FOUNDRY "Misc"
FAMILY_NAME "Fixed"
WEIGHT_NAME "Medium"
RELATIVE_WEIGHT 50
SLANT "R"
SPACING "C"
SETWIDTH_NAME "Semicondensed"
RELATIVE_SETWIDTH 50
ADD_STYLE_NAME ""
AVERAGE_WIDTH 60
STRIKEOUT_ASCENT 2
STRIKEOUT_DESCENT -1
CHARSET_REGISTRY "ISO10646"
CHARSET_ENCODING "1"
FONT_NAME "-Misc-Fixed-Medium-R-SemiCondensed--12-110-75-75-C-60-ISO10646-1"
_GBDFED_INFO "Edited with gbdfed 1.3."
ENDPROPERTIES
CHARS 70
STARTCHAR uni2336
ENCODING 9014
SWIDTH 480 0
DWIDTH 6 0
BBX 6 12 0 -2
BITMAP 
00
00
F8
20
20
20
20
20
20
F8
00
00
ENDCHAR
STARTCHAR uni2337
ENCODING 9015
SWIDTH 480 0
DWIDTH 6 0
BBX 6 12 0 -2
BITMAP 
00
78
48
48
48
48
48
48
48
48
78
00
ENDCHAR
STARTCHAR uni2338
ENCODING 9016
SWIDTH 480 0
DWIDTH 6 0
BBX 6 12 0 -2
BITMAP 
00
F8
88
88
F8
88
F8
88
88
F8
00
00
ENDCHAR
STARTCHAR uni2339
ENCODING 9017
SWIDTH 480 0
DWIDTH 6 0
BBX 6 12 0 -2
BITMAP 
00
F8
88
A8
88
F8
88
A8
88
F8
00
00
ENDCHAR
STARTCHAR uni233A
ENCODING 9018
SWIDTH 480 0
DWIDTH 6 0
BBX 6 12 0 -2
BITMAP 
00
F8
88
A8
D8
88
D8
A8
88
F8
00
00
ENDCHAR
STARTCHAR uni233B
ENCODING 9019
SWIDTH 480 0
DWIDTH 6 0
BBX 6 12 0 -2
BITMAP 
00
F8
88
88
A8
D8
A8
88
88
F8
00
00
ENDCHAR
STARTCHAR uni233C
ENCODING 9020
SWIDTH 480 0
DWIDTH 6 0
BBX 6 12 0 -2
BITMAP 
00
F8
88
F8
D8
88
D8
F8
88
F8
00
00
ENDCHAR
STARTCHAR uni233D
ENCODING 9021
SWIDTH 480 0
DWIDTH 6 0
BBX 6 12 0 -2
BITMAP 
00
20
20
70
A8
A8
A8
70
20
20
00
00
ENDCHAR
STARTCHAR uni233E
ENCODING 9022
SWIDTH 480 0
DWIDTH 6 0
BBX 6 12 0 -2
BITMAP 
00
00
00
70
88
A8
D8
A8
88
70
00
00
ENDCHAR
STARTCHAR uni233F
ENCODING 9023
SWIDTH 480 0
DWIDTH 6 0
BBX 6 12 0 -2
BITMAP 
00
00
00
08
10
10
F8
40
40
80
00
00
ENDCHAR
STARTCHAR uni2340
ENCODING 9024
SWIDTH 480 0
DWIDTH 6 0
BBX 6 12 0 -2
BITMAP 
00
00
00
80
40
40
F8
10
10
08
00
00
ENDCHAR
STARTCHAR uni2341
ENCODING 9025
SWIDTH 480 0
DWIDTH 6 0
BBX 6 12 0 -2
BITMAP 
00
F8
98
98
A8
A8
A8
C8
C8
F8
00
00
ENDCHAR
STARTCHAR uni2342
ENCODING 9026
SWIDTH 480 0
DWIDTH 6 0
BBX 6 12 0 -2
BITMAP 
00
F8
C8
C8
A8
A8
A8
98
98
F8
00
00
ENDCHAR
STARTCHAR uni2343
ENCODING 9027
SWIDTH 480 0
DWIDTH 6 0
BBX 6 12 0 -2
BITMAP 
00
F8
88
98
A8
C8
A8
98
88
F8
00
00
ENDCHAR
STARTCHAR uni2344
ENCODING 9028
SWIDTH 480 0
DWIDTH 6 0
BBX 6 12 0 -2
BITMAP 
00
F8
88
C8
A8
98
A8
C8
88
F8
00
00
ENDCHAR
STARTCHAR uni2345
ENCODING 9029
SWIDTH 480 0
DWIDTH 6 0
BBX 6 12 0 -2
BITMAP 
00
00
00
10
10
50
F8
50
10
10
00
00
ENDCHAR
STARTCHAR uni2346
ENCODING 9030
SWIDTH 480 0
DWIDTH 6 0
BBX 6 12 0 -2
BITMAP 
00
00
00
40
40
50
F8
50
40
40
00
00
ENDCHAR
STARTCHAR uni2347
ENCODING 9031
SWIDTH 480 0
DWIDTH 6 0
BBX 6 12 0 -2
BITMAP 
00
F8
88
A8
C8
F8
C8
A8
88
F8
00
00
ENDCHAR
STARTCHAR uni2348
ENCODING 9032
SWIDTH 480 0
DWIDTH 6 0
BBX 6 12 0 -2
BITMAP 
00
F8
88
A8
98
F8
98
A8
88
F8
00
00
ENDCHAR
STARTCHAR uni2349
ENCODING 9033
SWIDTH 480 0
DWIDTH 6 0
BBX 6 12 0 -2
BITMAP 
00
80
80
70
C8
A8
98
70
08
08
00
00
ENDCHAR
STARTCHAR uni234A
ENCODING 9034
SWIDTH 480 0
DWIDTH 6 0
BBX 6 12 0 -2
BITMAP 
00
00
20
20
20
20
20
20
F8
00
F8
00
ENDCHAR
STARTCHAR uni234B
ENCODING 9035
SWIDTH 480 0
DWIDTH 6 0
BBX 6 12 0 -2
BITMAP 
00
20
20
20
70
70
A8
A8
F8
20
20
00
ENDCHAR
STARTCHAR uni234C
ENCODING 9036
SWIDTH 480 0
DWIDTH 6 0
BBX 6 12 0 -2
BITMAP 
00
F8
88
88
D8
D8
A8
A8
88
F8
00
00
ENDCHAR
STARTCHAR uni234D
ENCODING 9037
SWIDTH 480 0
DWIDTH 6 0
BBX 6 12 0 -2
BITMAP 
00
F8
88
A8
A8
D8
D8
F8
88
F8
00
00
ENDCHAR
STARTCHAR uni234E
ENCODING 9038
SWIDTH 480 0
DWIDTH 6 0
BBX 6 12 0 -2
BITMAP 
00
20
20
70
A8
A8
A8
70
20
F8
00
00
ENDCHAR
STARTCHAR uni234F
ENCODING 9039
SWIDTH 480 0
DWIDTH 6 0
BBX 6 12 0 -2
BITMAP 
00
20
70
A8
20
F8
20
20
20
20
00
00
ENDCHAR
STARTCHAR uni2350
ENCODING 9040
SWIDTH 480 0
DWIDTH 6 0
BBX 6 12 0 -2
BITMAP 
00
F8
A8
F8
A8
A8
A8
A8
A8
F8
00
00
ENDCHAR
STARTCHAR uni2351
ENCODING 9041
SWIDTH 480 0
DWIDTH 6 0
BBX 6 12 0 -2
BITMAP 
00
F8
00
F8
20
20
20
20
20
20
00
00
ENDCHAR
STARTCHAR uni2352
ENCODING 9042
SWIDTH 480 0
DWIDTH 6 0
BBX 6 12 0 -2
BITMAP 
00
20
20
F8
A8
70
70
20
20
20
20
00
ENDCHAR
STARTCHAR uni2353
ENCODING 9043
SWIDTH 480 0
DWIDTH 6 0
BBX 6 12 0 -2
BITMAP 
00
F8
88
A8
A8
D8
D8
88
88
F8
00
00
ENDCHAR
STARTCHAR uni2354
ENCODING 9044
SWIDTH 480 0
DWIDTH 6 0
BBX 6 12 0 -2
BITMAP 
00
F8
88
F8
D8
D8
A8
A8
88
F8
00
00
ENDCHAR
STARTCHAR uni2355
ENCODING 9045
SWIDTH 480 0
DWIDTH 6 0
BBX 6 12 0 -2
BITMAP 
00
F8
20
20
70
A8
A8
70
20
20
00
00
ENDCHAR
STARTCHAR uni2356
ENCODING 9046
SWIDTH 480 0
DWIDTH 6 0
BBX 6 12 0 -2
BITMAP 
00
20
20
20
20
F8
20
A8
70
20
00
00
ENDCHAR
STARTCHAR uni2357
ENCODING 9047
SWIDTH 480 0
DWIDTH 6 0
BBX 6 12 0 -2
BITMAP 
00
F8
A8
A8
A8
A8
A8
F8
A8
F8
00
00
ENDCHAR
STARTCHAR uni2358
ENCODING 9048
SWIDTH 480 0
DWIDTH 6 0
BBX 6 12 0 -2
BITMAP 
00
00
20
20
20
00
00
00
00
00
F8
00
ENDCHAR
STARTCHAR uni2359
ENCODING 9049
SWIDTH 480 0
DWIDTH 6 0
BBX 6 12 0 -2
BITMAP 
00
00
20
20
50
50
88
88
F8
00
F8
00
ENDCHAR
STARTCHAR uni235A
ENCODING 9050
SWIDTH 480 0
DWIDTH 6 0
BBX 6 12 0 -2
BITMAP 
00
00
00
00
20
50
88
50
20
00
F8
00
ENDCHAR
STARTCHAR uni235B
ENCODING 9051
SWIDTH 480 0
DWIDTH 6 0
BBX 6 12 0 -2
BITMAP 
00
00
00
00
20
50
20
00
00
00
F8
00
ENDCHAR
STARTCHAR uni235C
ENCODING 9052
SWIDTH 480 0
DWIDTH 6 0
BBX 6 12 0 -2
BITMAP 
00
00
00
70
88
88
88
70
00
00
F8
00
ENDCHAR
STARTCHAR uni235D
ENCODING 9053
SWIDTH 480 0
DWIDTH 6 0
BBX 6 12 0 -2
BITMAP 
00
00
00
70
88
A8
D8
A8
88
88
00
00
ENDCHAR
STARTCHAR uni235E
ENCODING 9054
SWIDTH 480 0
DWIDTH 6 0
BBX 6 12 0 -2
BITMAP 
00
F8
A8
A8
A8
88
88
88
88
F8
00
00
ENDCHAR
STARTCHAR uni235F
ENCODING 9055
SWIDTH 480 0
DWIDTH 6 0
BBX 6 12 0 -2
BITMAP 
00
00
70
88
A8
F8
A8
D8
88
70
00
00
ENDCHAR
STARTCHAR uni2360
ENCODING 9056
SWIDTH 480 0
DWIDTH 6 0
BBX 6 12 0 -2
BITMAP 
00
F8
88
A8
88
88
88
A8
88
F8
00
00
ENDCHAR
STARTCHAR uni2361
ENCODING 9057
SWIDTH 480 0
DWIDTH 6 0
BBX 6 12 0 -2
BITMAP 
00
50
00
F8
20
20
20
20
20
20
00
00
ENDCHAR
STARTCHAR uni2362
ENCODING 9058
SWIDTH 480 0
DWIDTH 6 0
BBX 6 12 0 -2
BITMAP 
00
50
00
F8
88
88
50
50
20
20
00
00
ENDCHAR
STARTCHAR uni2363
ENCODING 9059
SWIDTH 480 0
DWIDTH 6 0
BBX 6 12 0 -2
BITMAP 
00
50
00
20
20
F8
70
70
88
00
00
00
ENDCHAR
STARTCHAR uni2364
ENCODING 9060
SWIDTH 480 0
DWIDTH 6 0
BBX 6 12 0 -2
BITMAP 
00
50
00
00
00
20
50
20
00
00
00
00
ENDCHAR
STARTCHAR uni2365
ENCODING 9061
SWIDTH 480 0
DWIDTH 6 0
BBX 6 12 0 -2
BITMAP 
00
50
00
00
70
88
88
88
70
00
00
00
ENDCHAR
STARTCHAR uni2366
ENCODING 9062
SWIDTH 480 0
DWIDTH 6 0
BBX 6 12 0 -2
BITMAP 
00
00
A8
A8
A8
A8
A8
70
20
20
00
00
ENDCHAR
STARTCHAR uni2367
ENCODING 9063
SWIDTH 480 0
DWIDTH 6 0
BBX 6 12 0 -2
BITMAP 
00
00
10
10
78
90
90
90
78
10
10
00
ENDCHAR
STARTCHAR uni2368
ENCODING 9064
SWIDTH 480 0
DWIDTH 6 0
BBX 6 12 0 -2
BITMAP 
00
50
00
00
00
68
B0
00
00
00
00
00
ENDCHAR
STARTCHAR uni2369
ENCODING 9065
SWIDTH 480 0
DWIDTH 6 0
BBX 6 12 0 -2
BITMAP 
00
50
00
00
C0
30
08
30
C0
00
00
00
ENDCHAR
STARTCHAR uni236A
ENCODING 9066
SWIDTH 480 0
DWIDTH 6 0
BBX 6 12 0 -2
BITMAP 
00
00
00
00
00
F8
00
00
30
20
40
00
ENDCHAR
STARTCHAR uni236B
ENCODING 9067
SWIDTH 480 0
DWIDTH 6 0
BBX 6 12 0 -2
BITMAP 
00
00
00
F8
88
88
7C
D8
A0
20
00
00
ENDCHAR
STARTCHAR uni236C
ENCODING 9068
SWIDTH 480 0
DWIDTH 6 0
BBX 6 12 0 -2
BITMAP 
00
00
00
70
88
88
E8
B8
88
70
00
00
ENDCHAR
STARTCHAR uni236D
ENCODING 9069
SWIDTH 480 0
DWIDTH 6 0
BBX 6 12 0 -2
BITMAP 
00
00
20
20
20
68
B0
20
20
20
00
00
ENDCHAR
STARTCHAR uni236E
ENCODING 9070
SWIDTH 480 0
DWIDTH 6 0
BBX 6 12 0 -2
BITMAP 
00
00
00
00
00
20
70
20
00
30
F8
40
ENDCHAR
STARTCHAR uni236F
ENCODING 9071
SWIDTH 480 0
DWIDTH 6 0
BBX 6 12 0 -2
BITMAP 
00
F8
88
98
F8
A8
F8
C8
88
F8
00
00
ENDCHAR
STARTCHAR uni2370
ENCODING 9072
SWIDTH 480 0
DWIDTH 6 0
BBX 6 12 0 -2
BITMAP 
00
F8
A8
D8
98
A8
88
A8
88
F8
00
00
ENDCHAR
STARTCHAR uni2371
ENCODING 9073
SWIDTH 480 0
DWIDTH 6 0
BBX 6 12 0 -2
BITMAP 
00
00
88
B8
E8
88
50
50
20
20
00
00
ENDCHAR
STARTCHAR uni2372
ENCODING 9074
SWIDTH 480 0
DWIDTH 6 0
BBX 6 12 0 -2
BITMAP 
00
00
20
20
50
50
88
E8
B8
88
00
00
ENDCHAR
STARTCHAR uni2373
ENCODING 9075
SWIDTH 480 0
DWIDTH 6 0
BBX 6 12 0 -2
BITMAP 
00
00
00
00
20
20
20
20
20
10
00
00
ENDCHAR
STARTCHAR uni2374
ENCODING 9076
SWIDTH 480 0
DWIDTH 6 0
BBX 6 12 0 -2
BITMAP 
00
00
00
00
00
70
88
88
88
F0
80
80
ENDCHAR
STARTCHAR uni2375
ENCODING 9077
SWIDTH 480 0
DWIDTH 6 0
BBX 6 12 0 -2
BITMAP 
00
00
00
00
00
50
88
A8
A8
50
00
00
ENDCHAR
STARTCHAR uni2376
ENCODING 9078
SWIDTH 480 0
DWIDTH 6 0
BBX 6 12 0 -2
BITMAP 
00
00
00
00
68
90
90
90
68
00
F8
00
ENDCHAR
STARTCHAR uni2377
ENCODING 9079
SWIDTH 480 0
DWIDTH 6 0
BBX 6 12 0 -2
BITMAP 
00
00
00
00
70
88
60
88
70
00
F8
00
ENDCHAR
STARTCHAR uni2378
ENCODING 9080
SWIDTH 480 0
DWIDTH 6 0
BBX 6 12 0 -2
BITMAP 
00
00
00
20
20
20
20
20
10
00
F8
00
ENDCHAR
STARTCHAR uni2379
ENCODING 9081
SWIDTH 480 0
DWIDTH 6 0
BBX 6 12 0 -2
BITMAP 
00
00
00
00
50
88
A8
A8
50
00
F8
00
ENDCHAR
STARTCHAR uni237A
ENCODING 9082
SWIDTH 480 0
DWIDTH 6 0
BBX 6 12 0 -2
BITMAP 
00
00
00
00
00
68
90
90
90
68
00
00
ENDCHAR
STARTCHAR uni2395
ENCODING 9109
SWIDTH 480 0
DWIDTH 6 0
BBX 6 12 0 -2
BITMAP 
00
F8
88
88
88
88
88
88
88
88
F8
00
ENDCHAR
ENDFONT
